# vtk DataFile Version 3.0
# Triangle surface mesh written by OVITO Pro 3.14.1
ASCII
DATASET UNSTRUCTURED_GRID
POINTS 332 double
86.22934638 45.43716085 83.13972983
88.5560737 46.15789484 85.59159635
85.87070516 45.39181451 86.28968348
40.47140258 94.82315972 86.79714088
40.33310716 91.88001621 86.498161
42.16122737 92.93047924 88.63760802
68.07294206 64.37600374 18.47418223
69.42106711 66.21297592 16.37870648
66.31321829 66.09705013 16.73579014
85.76493548 49.68670603 32.89928466
84.11784127 51.34245005 31.2465603
82.94268967 49.21200384 33.38025911
100.25113423 34.65969825 60.95331557
98.53387337 36.78020658 58.8740951
99.82845515 34.57488626 57.38395271
67.21692527 67.77227595 113.62251366
64.41759626 67.32545794 114.24378223
65.1649905 69.84283588 111.61523613
75.95333687 55.31487665 106.10901962
76.55643778 57.66469405 106.8799277
74.53875383 56.92650572 107.88629926
87.08093006 47.79680307 90.64127304
86.48395501 47.7751434 87.11561167
85.80029189 45.51541001 89.49528814
88.40328544 46.26492423 82.16813382
51.31581231 85.13950921 37.57384101
50.76671818 85.34598587 40.51588282
49.61458112 86.47804528 39.35869928
39.68483772 96.36366544 59.18170675
39.56399985 96.52941301 62.33222534
38.04044176 97.82979586 60.92750637
37.29838806 97.90285998 83.72703939
39.27026013 96.62724657 85.14721038
37.89070132 97.56104055 87.41655325
42.85779988 93.26189704 55.71127796
44.15129509 92.07276758 56.9946688
42.16009122 90.55012756 58.36507734
42.44052488 93.17255775 58.90555484
46.59650759 85.4827218 96.12764409
46.09198685 89.27202716 95.64659171
47.73846264 87.61505554 97.29611637
56.97169684 78.01941016 103.48766814
54.79692499 77.21323036 104.38411276
56.46998886 75.5527494 106.04031425
95.00978699 39.69360015 68.93702534
97.01180414 37.91475824 70.83470637
95.17553456 39.57276228 72.39130675
66.48207437 65.27882767 112.83702228
70.10862845 64.18178491 113.35207058
69.06328894 65.94234059 115.33669237
66.81717233 65.61392563 20.36982228
68.85796412 66.9310095 19.14803613
70.26934154 64.85641875 20.73813895
57.36214423 78.77708836 30.65824485
55.38745044 77.3586796 31.95687119
55.56850319 79.95953939 32.46635794
52.78467082 83.36673109 35.88876257
52.1467999 81.04026165 35.0852099
54.14698437 81.88355151 34.03571099
41.80575714 90.85917251 51.42735459
43.64707538 89.22021373 49.86498906
44.72023182 91.85790425 50.706139
100.344646 34.72319647 51.13272674
97.73109135 33.99594465 51.69429643
99.13227363 32.37996774 53.08637
81.3016778 50.83903607 31.73510565
92.80568464 39.27304075 43.26771068
94.458395 37.6176393 44.92894222
95.63784771 39.73485377 42.8225811
83.54183655 52.04325262 33.9443657
93.19900045 41.15312642 73.86146375
92.4885805 38.81200646 73.06561497
87.06827193 48.67859062 37.44332132
89.05757284 46.37521315 36.20339171
88.4799671 47.07304859 38.90180016
92.87573785 38.85431559 69.93591356
98.36641892 36.38038512 62.38034998
100.35110933 34.63787331 64.26686478
99.70946722 34.6572026 54.22954032
98.45296189 37.03047522 52.05940205
99.07005471 32.32567061 59.73645801
99.15363332 32.3402742 56.47944424
97.71568381 33.84778795 58.36316297
81.75326891 52.89212918 95.33196257
81.14669617 50.30517085 94.68896444
83.28289079 51.05858769 93.71464101
78.60404146 57.00921363 28.98929137
77.99956964 54.18227501 28.42891276
76.3576506 55.81161114 26.78271425
85.04308721 49.95886216 35.5880778
84.61022626 47.55813301 35.05210781
77.19338984 58.61230316 27.53246814
75.1709307 59.89112832 25.67889953
77.53539481 57.96080847 24.6399414
97.55861578 34.27504779 48.04678004
96.29648292 35.59229152 50.1766267
79.66827155 52.52708608 30.10172794
82.47221488 52.9969421 29.59437955
98.33752538 36.42399541 49.0057492
93.99376394 41.39907279 41.16472256
91.17329959 40.9011488 41.62820496
87.41214446 48.03113736 34.55051637
80.82533455 54.65152158 27.94372382
80.10458038 54.92569287 30.63232032
90.70398602 44.71746476 37.85704216
89.54562417 42.58941665 39.99845258
92.3500296 43.05908561 39.50963104
97.33128518 33.78222566 64.7838448
97.55821859 33.85335723 61.64172939
96.16195941 35.57042457 63.31169096
97.77515612 33.916621 55.06657157
94.38246749 37.13363785 68.24641093
94.00934567 37.0374545 71.40968938
95.73453869 35.63490111 69.66798383
94.08486878 37.46128174 74.53951873
92.41969249 38.92200241 76.28228401
78.65938416 56.05994353 105.40369662
77.54933716 53.97809196 107.57855965
87.39130804 43.65533878 84.62137873
87.46342535 44.05082131 87.75635652
79.25304384 52.00639841 99.49661897
79.92208467 54.33229332 100.23791482
77.8541204 53.59174956 101.30727119
87.77281696 43.69144957 81.48087726
85.09936964 49.55794425 88.76492124
82.49304784 48.81688997 96.10393359
82.56107383 48.69678874 92.89000679
82.94108731 48.73569463 89.75340067
84.07507374 46.93243935 91.24050372
84.44982393 47.01261512 88.07052205
75.88542372 55.46394731 109.32147244
69.65464134 62.00820666 112.77286612
71.26568817 60.22436263 111.19319117
72.04529611 62.93031731 111.80653409
73.16135905 60.96969637 110.11167766
72.5801491 58.74884094 112.65296083
72.93670349 58.64723778 109.4646696
75.22854002 59.45562992 108.59183803
77.23178059 57.70118838 110.44794056
75.60786361 59.3376807 112.08299123
65.99894987 65.78278171 115.80779014
67.66443146 63.69017011 114.34125355
79.63032216 52.04233836 96.36818843
81.94965627 52.7573224 98.80425089
77.47846311 53.56456078 104.43278742
68.13683763 63.60398993 111.2423111
70.02102904 64.75552823 110.05089164
79.17920314 56.30663985 26.29153831
40.33559759 92.51470751 56.46788401
40.44559354 92.4458195 59.85601497
46.20227577 89.92631456 49.14413382
45.47335043 87.25438304 51.75927726
45.50946122 87.63589196 48.29497873
45.11397869 87.56377465 44.82515652
47.07538549 85.85409484 46.66088348
33.72232939 99.07394529 72.94605801
33.7077258 98.99036668 76.29384424
35.50261205 97.12591619 74.87516297
40.86587936 95.16216411 60.40318704
41.40687358 95.03779955 57.34946375
38.82156215 93.85433251 64.94401093
37.01789889 95.80466131 63.06318383
39.16571815 96.42242502 65.43673944
37.1350712 95.7318718 66.45593011
45.56880261 89.81318359 52.22591138
47.45236813 88.54896918 50.51872789
53.67040159 79.26215616 33.44861897
55.52194001 79.94341931 35.58688854
47.51133214 88.5516549 47.14369518
51.717061 80.96589531 31.61933766
54.64690668 81.89551533 30.88751482
53.55376558 79.32537986 30.0578023
57.91930595 78.65636222 24.3199277
56.22165647 79.85581584 26.14609662
55.00110804 77.66346284 25.01855965
61.96443737 70.73751183 22.02839117
61.72558883 71.15101476 18.60473942
60.13755906 72.7254509 20.18576083
34.71252669 101.09529067 67.56926478
36.36642345 99.64796827 65.79391333
36.27241488 99.77758108 68.98514998
39.98455925 92.12871536 89.50131068
39.52274623 95.90135229 89.0561811
40.97730426 97.78106767 87.21683369
35.07535221 97.28298422 84.37318004
36.72371733 95.48313803 86.16222284
35.71539856 99.72183779 75.39060875
35.433779 97.06644388 78.18337157
42.01161379 90.14030767 88.20976257
52.03000982 82.99032042 98.53481558
51.53536393 80.5159222 101.08550565
54.05350713 81.71301962 99.98272032
33.61062582 99.05879055 69.54359024
35.49704277 97.28338141 71.54892939
44.25040387 91.7363693 53.86431201
43.75974781 89.15283587 53.26049808
61.91291195 73.03299519 108.44579275
60.21392292 74.93308649 106.59732008
60.06936226 71.98274619 106.33777303
38.3375607 93.778405 87.86014222
61.38079967 70.59377605 110.98737382
62.56761456 72.68716446 112.15657411
62.95534979 68.93338947 112.64361833
64.22121577 70.99945777 113.8114764
47.09100938 87.95892807 93.58412132
73.94266305 61.00673093 113.73031929
63.93718125 71.73385846 109.90293895
71.00374223 64.57238423 18.0418764
67.62612405 68.18147473 17.85291366
63.09572167 69.44510326 16.80548268
64.61181509 71.89457155 17.58247058
67.21425976 68.43441541 20.86637731
66.15365941 69.63751106 16.26469237
65.30746032 70.08880175 19.18840252
61.8660742 73.29550273 22.41970284
61.21910363 75.44664095 20.94687766
62.56088269 73.26030389 19.33933409
60.71035889 75.26361961 24.10384377
48.41830607 84.2661074 38.22218147
48.83716065 84.34732626 41.70450372
50.37521126 82.55892617 40.05160679
96.05606197 35.92908267 46.53342284
98.915662 36.37850995 46.17465376
97.28055945 38.06449868 44.48535325
89.98023607 44.98576196 40.54679476
92.00392076 43.70117263 42.40400802
98.49603173 36.28637655 65.79391333
96.93874002 38.65681194 47.40063939
93.41364028 42.08859742 43.86594088
97.40265494 34.17580013 67.92110299
96.28002169 35.58822884 60.09200715
91.08187244 40.39990878 74.87707734
94.91195343 39.98733987 45.51841038
96.48223829 37.8964918 67.32792595
95.8073282 35.5177288 66.45593011
82.12967958 53.64679018 32.48681558
86.2420782 45.87069241 36.68444409
87.88098834 44.24370994 38.32832652
75.89165261 59.61528595 22.99003349
73.67491351 61.97487708 24.03732008
74.2510768 61.27031396 21.33898571
73.05366457 59.16539063 23.4730333
74.72342909 57.5035111 25.14798488
72.61843554 62.92358544 19.68937411
71.40942395 60.80800033 21.82257382
72.27260481 63.57828805 22.58339275
69.76741053 62.53585021 20.17641833
58.53504345 74.45106492 21.91182831
76.30773106 55.34909831 102.96237348
90.38757737 44.50000977 84.03796772
85.24675472 49.45741888 92.19709928
89.54484689 42.1466298 76.54349276
90.70626016 40.34254498 78.00300568
91.67250296 43.00460012 75.52567796
91.86763335 42.86318666 78.99292201
93.69743159 41.20570248 77.43515482
89.77409575 44.44456818 80.427739
89.17676413 42.10265219 79.67969808
89.10938627 42.21532462 82.88898906
90.77282749 40.75424286 81.14895459
80.85170469 50.657339 100.96973766
79.18982014 52.12303442 102.7106023
84.1562926 47.35129393 94.36298147
78.47297335 56.18082652 101.96013954
70.85218524 60.46321117 114.37433942
80.4822533 54.39967841 103.84831026
83.77804785 51.09645459 97.24485029
80.77733835 50.2276001 97.8308099
74.15693508 57.04895655 111.07662831
72.38391581 62.63874648 115.39475396
64.92376947 67.02379132 111.24140395
59.72100937 72.25193543 109.3354333
65.10342989 67.73396854 18.57165355
64.03807177 71.98217096 20.88609164
42.21745502 90.92573984 54.88620568
42.99921334 93.06676665 52.57372201
38.9177455 94.22745433 61.50248938
38.0587082 98.35936171 64.02552595
35.17459987 97.43894506 64.61870299
46.30930516 89.7735263 45.96279635
38.49391826 94.15193122 58.02751873
35.56817434 97.51031482 68.0862448
52.42353275 83.27401964 39.06073206
50.25511003 82.62695216 36.66073359
52.06922915 80.67090383 38.54816444
54.10765475 82.15087167 37.11590929
56.81765269 76.02497628 23.45907244
58.65749428 74.06924617 25.32629926
59.43077008 76.68185998 22.72943803
48.75698488 83.97257607 45.13932205
46.95178999 85.92450811 43.26168814
56.10077348 80.04222665 29.30733954
55.41463922 77.73433689 28.47758742
57.46489817 78.55776366 27.39712384
49.01481453 86.50620583 45.56347487
49.51405575 86.62543036 42.53132124
47.97279693 87.94626994 41.10527304
47.9944566 88.54324499 44.18441167
56.96672335 75.95706313 26.85141962
58.82167073 76.57272149 25.74823606
49.85999616 82.17731033 99.42825911
49.38529397 85.95986452 98.94728466
51.03194995 84.30455873 100.5969603
33.32008824 99.00611363 82.6321067
35.35445535 97.11050865 81.41589643
33.66803226 99.01172637 79.50557
37.53445638 98.50628603 66.924613
36.22880459 99.80647462 82.0297492
35.87259342 99.61012663 72.0836951
37.06050848 95.24271708 83.2006267
35.62232478 99.69103811 78.47860205
45.39415141 89.8496329 91.74020016
43.27298335 88.78397583 92.83685258
44.92109006 87.14621166 94.46912652
42.80331439 92.5843704 92.34803104
44.44733524 90.92801398 93.99784216
49.11313784 86.68171279 95.0312778
41.6588512 90.45870041 91.16420496
44.17903804 91.65176393 90.08279476
45.8739342 92.81369211 92.12395346
55.27238637 79.91115854 101.64209137
53.14971392 78.84692845 102.75452794
48.21146699 83.81217374 97.79770781
50.33114738 84.88056345 96.6899657
55.97496015 79.33599686 105.54913831
54.32767842 80.99226545 103.89892382
52.6798579 82.64778512 102.24717955
58.0804889 73.88457091 107.70798488
57.62319153 77.67740519 107.1999414
59.27111405 76.01874739 108.85243349
61.73779949 70.25915776 108.03635786
58.99527168 76.7394693 104.93649953

CELLS 664 2656
3 0 2 1
3 3 5 4
3 6 8 7
3 9 11 10
3 12 14 13
3 15 17 16
3 18 20 19
3 21 23 22
3 24 0 1
3 25 27 26
3 28 30 29
3 31 33 32
3 34 36 35
3 34 37 36
3 38 40 39
3 41 43 42
3 44 46 45
3 47 49 48
3 50 6 51
3 6 52 51
3 53 55 54
3 56 58 57
3 59 61 60
3 62 64 63
3 11 65 10
3 66 68 67
3 65 11 69
3 70 46 71
3 72 74 73
3 71 46 75
3 76 77 12
3 78 62 79
3 80 82 81
3 83 85 84
3 86 88 87
3 89 11 90
3 91 93 92
3 89 90 72
3 63 95 94
3 96 97 65
3 14 81 78
3 79 62 98
3 90 11 9
3 99 66 100
3 101 89 72
3 101 72 73
3 102 97 96
3 103 87 96
3 65 97 10
3 104 106 105
3 102 86 103
3 100 106 99
3 107 76 108
3 107 109 76
3 110 82 14
3 111 45 112
3 111 113 45
3 114 70 115
3 19 117 116
3 1 119 118
3 120 122 121
3 2 0 118
3 0 24 118
3 24 123 118
3 22 124 21
3 84 126 125
3 124 128 127
3 124 129 128
3 130 20 18
3 131 133 132
3 134 135 132
3 136 135 134
3 137 139 138
3 47 141 140
3 142 143 83
3 144 117 18
3 141 145 131
3 146 133 131
3 19 20 137
3 147 91 86
3 37 148 36
3 149 148 37
3 150 151 60
3 152 151 150
3 153 154 152
3 155 157 156
3 158 159 28
3 160 162 161
3 162 163 161
3 151 165 164
3 58 166 55
3 167 166 58
3 168 150 165
3 169 170 166
3 166 170 171
3 172 174 173
3 175 177 176
3 158 37 159
3 178 180 179
3 181 5 3
3 3 182 181
3 32 33 183
3 184 185 31
3 186 187 157
3 4 5 188
3 189 191 190
3 192 193 155
3 183 3 32
3 194 195 164
3 196 198 197
3 183 182 3
3 33 199 182
3 200 202 201
3 203 202 16
3 39 40 204
3 131 145 146
3 132 133 134
3 134 133 205
3 141 47 145
3 15 16 140
3 131 48 141
3 196 201 206
3 205 135 139
3 49 140 141
3 52 207 51
3 8 51 7
3 8 208 51
3 51 207 7
3 209 176 210
3 208 211 51
3 210 213 212
3 214 216 215
3 215 217 214
3 147 86 102
3 218 26 219
3 220 26 218
3 81 14 80
3 221 222 94
3 67 223 221
3 224 225 106
3 109 226 76
3 221 223 222
3 64 62 78
3 63 94 98
3 98 62 63
3 222 227 98
3 225 100 228
3 222 98 94
3 14 82 13
3 107 108 77
3 64 81 110
3 78 81 64
3 110 14 78
3 12 82 80
3 12 108 82
3 12 80 14
3 76 226 77
3 12 77 108
3 107 226 229
3 82 110 81
3 108 13 82
3 108 230 13
3 76 230 108
3 13 230 12
3 12 230 76
3 95 63 79
3 115 231 71
3 110 63 64
3 94 95 221
3 79 63 78
3 63 110 78
3 95 79 98
3 95 98 221
3 227 221 98
3 232 66 67
3 233 234 111
3 46 114 112
3 75 46 44
3 102 96 87
3 235 69 10
3 90 236 72
3 88 86 91
3 69 9 10
3 237 74 236
3 69 11 89
3 69 235 65
3 235 96 65
3 10 97 235
3 96 235 103
3 235 97 103
3 237 104 105
3 97 102 103
3 238 239 92
3 87 147 102
3 103 86 87
3 240 238 241
3 88 93 147
3 227 67 221
3 105 224 237
3 106 225 99
3 224 74 237
3 104 74 224
3 73 104 237
3 101 9 89
3 73 74 104
3 232 67 227
3 105 225 224
3 68 66 99
3 99 228 68
3 225 228 99
3 100 66 228
3 228 66 232
3 105 100 225
3 106 100 105
3 68 223 67
3 227 223 232
3 223 68 232
3 222 223 227
3 232 68 228
3 104 224 106
3 237 236 73
3 236 74 72
3 89 9 69
3 9 101 90
3 101 236 90
3 73 236 101
3 241 238 242
3 147 93 91
3 92 242 91
3 240 244 243
3 7 207 6
3 244 241 239
3 241 244 240
3 211 50 51
3 240 243 245
3 52 243 207
3 245 52 246
3 243 244 246
3 243 246 207
3 246 52 6
3 245 243 52
3 6 207 246
3 245 244 239
3 91 242 88
3 241 242 92
3 246 244 245
3 239 241 92
3 238 92 93
3 245 239 240
3 238 240 239
3 242 238 93
3 93 88 242
3 87 88 147
3 177 247 215
3 233 113 229
3 45 113 233
3 84 85 126
3 18 248 144
3 1 249 24
3 126 85 250
3 23 2 119
3 118 249 1
3 119 1 22
3 251 253 252
3 253 231 252
3 254 253 251
3 255 253 254
3 252 231 255
3 255 231 115
3 249 256 24
3 71 231 70
3 114 115 71
3 256 257 123
3 256 254 257
3 249 123 258
3 118 123 249
3 257 259 258
3 258 256 249
3 123 257 258
3 24 256 123
3 259 254 256
3 257 254 251
3 257 252 259
3 251 252 257
3 258 259 256
3 252 254 259
3 226 234 233
3 255 254 252
3 44 233 111
3 226 233 229
3 70 231 253
3 71 75 112
3 114 46 70
3 255 115 70
3 253 255 70
3 107 77 226
3 45 233 44
3 107 234 109
3 109 234 226
3 112 44 111
3 75 44 112
3 46 112 45
3 114 71 112
3 113 234 229
3 234 107 229
3 113 111 234
3 22 23 119
3 260 261 120
3 120 261 122
3 250 262 128
3 120 143 142
3 263 248 116
3 119 2 118
3 22 129 124
3 127 126 250
3 121 122 263
3 1 2 22
3 125 126 262
3 131 132 264
3 121 265 261
3 2 129 22
3 128 126 127
3 262 126 128
3 21 129 23
3 128 129 21
3 21 250 128
3 83 143 266
3 23 129 2
3 127 250 124
3 124 250 21
3 262 85 125
3 250 85 262
3 267 120 142
3 134 137 136
3 144 263 122
3 144 248 263
3 116 248 18
3 263 116 265
3 85 266 125
3 83 266 85
3 266 84 125
3 266 267 84
3 143 267 266
3 260 120 267
3 143 260 267
3 263 265 121
3 267 83 84
3 267 142 83
3 143 121 260
3 120 121 143
3 265 116 144
3 265 122 261
3 265 144 122
3 121 261 260
3 140 49 15
3 268 136 137
3 137 20 268
3 264 132 205
3 132 135 205
3 18 19 116
3 134 139 137
3 117 19 130
3 116 117 144
3 134 205 139
3 146 48 133
3 203 17 201
3 47 48 145
3 15 49 47
3 49 141 48
3 145 48 146
3 48 269 133
3 133 264 205
3 133 269 264
3 131 269 48
3 269 131 264
3 135 136 139
3 136 268 139
3 268 138 139
3 268 20 138
3 138 20 130
3 130 19 138
3 18 117 130
3 137 138 19
3 140 16 47
3 202 270 16
3 271 200 196
3 272 213 209
3 210 176 216
3 175 176 273
3 272 50 211
3 50 8 6
3 164 59 60
3 195 59 164
3 60 151 164
3 35 274 194
3 59 274 275
3 29 276 158
3 28 276 30
3 30 276 161
3 161 277 29
3 29 30 161
3 278 179 277
3 29 158 28
3 29 277 162
3 194 61 275
3 275 61 59
3 59 195 194
3 194 274 59
3 279 152 150
3 159 37 34
3 280 159 149
3 159 148 149
3 280 276 28
3 164 61 194
3 60 61 150
3 165 151 152
3 34 148 159
3 36 148 274
3 274 34 275
3 274 35 36
3 275 34 194
3 158 280 149
3 158 276 280
3 159 280 28
3 274 148 34
3 277 163 278
3 161 163 277
3 180 193 281
3 162 160 29
3 160 276 29
3 161 276 160
3 149 37 158
3 165 150 164
3 152 168 165
3 150 168 279
3 61 164 150
3 34 35 194
3 152 154 168
3 214 247 177
3 220 283 282
3 282 283 284
3 57 167 285
3 55 170 58
3 286 288 287
3 288 247 287
3 58 170 169
3 285 282 284
3 289 290 219
3 57 166 167
3 219 27 218
3 57 58 169
3 285 167 58
3 284 283 56
3 56 57 284
3 285 58 56
3 284 57 285
3 169 166 57
3 54 55 171
3 55 166 171
3 171 291 54
3 291 292 54
3 293 53 292
3 171 170 291
3 55 53 291
3 287 247 217
3 292 53 54
3 170 55 291
3 291 53 293
3 154 294 168
3 219 26 295
3 294 289 295
3 26 27 295
3 218 27 25
3 296 27 219
3 282 285 56
3 296 219 290
3 290 297 295
3 295 296 290
3 168 153 279
3 168 297 153
3 153 297 154
3 297 290 154
3 290 294 154
3 289 294 290
3 297 294 295
3 25 282 56
3 168 294 297
3 295 289 219
3 295 27 296
3 283 25 56
3 218 25 220
3 220 25 283
3 25 26 282
3 282 26 220
3 152 279 153
3 286 298 172
3 298 174 172
3 215 247 288
3 293 299 172
3 212 213 208
3 172 173 293
3 288 286 172
3 298 299 293
3 172 299 288
3 286 299 298
3 287 299 286
3 217 247 214
3 287 217 299
3 208 272 212
3 273 176 213
3 273 210 216
3 212 272 209
3 175 216 214
3 175 273 216
3 288 217 215
3 208 213 211
3 211 213 272
3 273 213 210
3 8 50 208
3 50 272 208
3 293 174 298
3 292 174 293
3 299 217 288
3 213 176 209
3 176 177 216
3 216 177 215
3 214 177 175
3 293 173 291
3 173 174 292
3 291 173 292
3 210 212 209
3 31 185 33
3 33 182 183
3 300 302 301
3 178 281 192
3 303 305 304
3 179 180 306
3 31 307 184
3 281 193 192
3 155 186 308
3 156 186 155
3 193 308 157
3 278 281 179
3 192 308 180
3 163 306 278
3 278 306 281
3 180 308 193
3 155 193 157
3 179 281 178
3 192 180 178
3 306 180 281
3 179 306 277
3 277 306 162
3 162 306 163
3 155 308 192
3 308 186 157
3 309 184 304
3 307 305 303
3 304 187 310
3 311 313 312
3 157 187 156
3 312 315 314
3 32 309 31
3 32 185 309
3 3 185 32
3 309 304 31
3 185 184 309
3 4 199 3
3 186 156 310
3 310 187 186
3 310 307 304
3 304 307 31
3 307 303 184
3 184 303 304
3 305 156 187
3 305 310 156
3 310 305 307
3 304 305 187
3 204 40 316
3 33 185 3
3 3 199 33
3 317 181 188
3 314 319 318
3 315 319 314
3 181 317 5
3 312 313 315
3 318 5 314
3 314 311 312
3 314 317 311
3 314 5 317
3 318 311 317
3 317 188 318
3 199 4 181
3 188 5 318
3 182 199 181
3 181 4 188
3 315 313 39
3 190 191 320
3 42 321 320
3 322 323 300
3 41 325 324
3 320 325 41
3 326 191 189
3 197 198 327
3 302 189 301
3 189 323 301
3 327 43 197
3 41 42 320
3 326 325 320
3 325 326 321
3 326 190 321
3 189 190 300
3 311 204 313
3 301 322 300
3 190 302 300
3 326 302 190
3 321 190 320
3 320 191 326
3 189 302 326
3 319 315 311
3 300 323 189
3 313 38 39
3 38 323 322
3 313 204 38
3 315 204 311
3 39 204 315
3 319 311 318
3 40 323 316
3 40 301 323
3 204 316 38
3 38 316 323
3 301 40 322
3 322 40 38
3 327 329 328
3 325 42 324
3 328 329 197
3 325 321 42
3 17 200 206
3 42 43 324
3 324 43 328
3 271 330 200
3 330 271 198
3 202 200 17
3 41 328 331
3 324 328 41
3 197 43 331
3 331 43 41
3 331 328 197
3 328 43 327
3 196 200 201
3 197 271 196
3 329 271 197
3 327 271 329
3 201 202 203
3 201 17 206
3 15 270 17
3 47 270 15
3 16 270 47
3 16 17 203
3 198 271 327
3 330 206 200
3 17 270 202
3 196 330 198
3 206 330 196

CELL_TYPES 664
5
5
5
5
5
5
5
5
5
5
5
5
5
5
5
5
5
5
5
5
5
5
5
5
5
5
5
5
5
5
5
5
5
5
5
5
5
5
5
5
5
5
5
5
5
5
5
5
5
5
5
5
5
5
5
5
5
5
5
5
5
5
5
5
5
5
5
5
5
5
5
5
5
5
5
5
5
5
5
5
5
5
5
5
5
5
5
5
5
5
5
5
5
5
5
5
5
5
5
5
5
5
5
5
5
5
5
5
5
5
5
5
5
5
5
5
5
5
5
5
5
5
5
5
5
5
5
5
5
5
5
5
5
5
5
5
5
5
5
5
5
5
5
5
5
5
5
5
5
5
5
5
5
5
5
5
5
5
5
5
5
5
5
5
5
5
5
5
5
5
5
5
5
5
5
5
5
5
5
5
5
5
5
5
5
5
5
5
5
5
5
5
5
5
5
5
5
5
5
5
5
5
5
5
5
5
5
5
5
5
5
5
5
5
5
5
5
5
5
5
5
5
5
5
5
5
5
5
5
5
5
5
5
5
5
5
5
5
5
5
5
5
5
5
5
5
5
5
5
5
5
5
5
5
5
5
5
5
5
5
5
5
5
5
5
5
5
5
5
5
5
5
5
5
5
5
5
5
5
5
5
5
5
5
5
5
5
5
5
5
5
5
5
5
5
5
5
5
5
5
5
5
5
5
5
5
5
5
5
5
5
5
5
5
5
5
5
5
5
5
5
5
5
5
5
5
5
5
5
5
5
5
5
5
5
5
5
5
5
5
5
5
5
5
5
5
5
5
5
5
5
5
5
5
5
5
5
5
5
5
5
5
5
5
5
5
5
5
5
5
5
5
5
5
5
5
5
5
5
5
5
5
5
5
5
5
5
5
5
5
5
5
5
5
5
5
5
5
5
5
5
5
5
5
5
5
5
5
5
5
5
5
5
5
5
5
5
5
5
5
5
5
5
5
5
5
5
5
5
5
5
5
5
5
5
5
5
5
5
5
5
5
5
5
5
5
5
5
5
5
5
5
5
5
5
5
5
5
5
5
5
5
5
5
5
5
5
5
5
5
5
5
5
5
5
5
5
5
5
5
5
5
5
5
5
5
5
5
5
5
5
5
5
5
5
5
5
5
5
5
5
5
5
5
5
5
5
5
5
5
5
5
5
5
5
5
5
5
5
5
5
5
5
5
5
5
5
5
5
5
5
5
5
5
5
5
5
5
5
5
5
5
5
5
5
5
5
5
5
5
5
5
5
5
5
5
5
5
5
5
5
5
5
5
5
5
5
5
5
5
5
5
5
5
5
5
5
5
5
5
5
5
5
5
5
5
5
5
5
5
5
5
5
5
5
5
5
5
5
5
5
5
5
5
5
5
5
5
5
5
5
5
5
5
5
5
5
5
5
5
5
5
5
5
5
5
5
5
5
5
5
5
5
5
5
5
5
5
5
5
5
5
5
5
5
5
5
5
5
5
5
5
5
5
5
5
5
5
5
5
5
5
5
5

CELL_DATA 664
SCALARS cap unsigned_char
LOOKUP_TABLE default
0
0
0
0
0
0
0
0
0
0
0
0
0
0
0
0
0
0
0
0
0
0
0
0
0
0
0
0
0
0
0
0
0
0
0
0
0
0
0
0
0
0
0
0
0
0
0
0
0
0
0
0
0
0
0
0
0
0
0
0
0
0
0
0
0
0
0
0
0
0
0
0
0
0
0
0
0
0
0
0
0
0
0
0
0
0
0
0
0
0
0
0
0
0
0
0
0
0
0
0
0
0
0
0
0
0
0
0
0
0
0
0
0
0
0
0
0
0
0
0
0
0
0
0
0
0
0
0
0
0
0
0
0
0
0
0
0
0
0
0
0
0
0
0
0
0
0
0
0
0
0
0
0
0
0
0
0
0
0
0
0
0
0
0
0
0
0
0
0
0
0
0
0
0
0
0
0
0
0
0
0
0
0
0
0
0
0
0
0
0
0
0
0
0
0
0
0
0
0
0
0
0
0
0
0
0
0
0
0
0
0
0
0
0
0
0
0
0
0
0
0
0
0
0
0
0
0
0
0
0
0
0
0
0
0
0
0
0
0
0
0
0
0
0
0
0
0
0
0
0
0
0
0
0
0
0
0
0
0
0
0
0
0
0
0
0
0
0
0
0
0
0
0
0
0
0
0
0
0
0
0
0
0
0
0
0
0
0
0
0
0
0
0
0
0
0
0
0
0
0
0
0
0
0
0
0
0
0
0
0
0
0
0
0
0
0
0
0
0
0
0
0
0
0
0
0
0
0
0
0
0
0
0
0
0
0
0
0
0
0
0
0
0
0
0
0
0
0
0
0
0
0
0
0
0
0
0
0
0
0
0
0
0
0
0
0
0
0
0
0
0
0
0
0
0
0
0
0
0
0
0
0
0
0
0
0
0
0
0
0
0
0
0
0
0
0
0
0
0
0
0
0
0
0
0
0
0
0
0
0
0
0
0
0
0
0
0
0
0
0
0
0
0
0
0
0
0
0
0
0
0
0
0
0
0
0
0
0
0
0
0
0
0
0
0
0
0
0
0
0
0
0
0
0
0
0
0
0
0
0
0
0
0
0
0
0
0
0
0
0
0
0
0
0
0
0
0
0
0
0
0
0
0
0
0
0
0
0
0
0
0
0
0
0
0
0
0
0
0
0
0
0
0
0
0
0
0
0
0
0
0
0
0
0
0
0
0
0
0
0
0
0
0
0
0
0
0
0
0
0
0
0
0
0
0
0
0
0
0
0
0
0
0
0
0
0
0
0
0
0
0
0
0
0
0
0
0
0
0
0
0
0
0
0
0
0
0
0
0
0
0
0
0
0
0
0
0
0
0
0
0
0
0
0
0
0
0
0
0
0
0
0
0
0
0
0
0
0
0
0
0
0
0
0
0
0
0
0
0
0
0
0
0
0
0
0
0
0
0
0
0
0
0
0
0
0
0
0
0
0
0
0
0
0
0
0
0
0
0
0
0
0
0
0
0
0
0
0
0
0
0
0
0
0
0
0
0
0
0
0
0
0
0
0

POINT_DATA 332
SCALARS cap unsigned_char
LOOKUP_TABLE default
0
0
0
0
0
0
0
0
0
0
0
0
0
0
0
0
0
0
0
0
0
0
0
0
0
0
0
0
0
0
0
0
0
0
0
0
0
0
0
0
0
0
0
0
0
0
0
0
0
0
0
0
0
0
0
0
0
0
0
0
0
0
0
0
0
0
0
0
0
0
0
0
0
0
0
0
0
0
0
0
0
0
0
0
0
0
0
0
0
0
0
0
0
0
0
0
0
0
0
0
0
0
0
0
0
0
0
0
0
0
0
0
0
0
0
0
0
0
0
0
0
0
0
0
0
0
0
0
0
0
0
0
0
0
0
0
0
0
0
0
0
0
0
0
0
0
0
0
0
0
0
0
0
0
0
0
0
0
0
0
0
0
0
0
0
0
0
0
0
0
0
0
0
0
0
0
0
0
0
0
0
0
0
0
0
0
0
0
0
0
0
0
0
0
0
0
0
0
0
0
0
0
0
0
0
0
0
0
0
0
0
0
0
0
0
0
0
0
0
0
0
0
0
0
0
0
0
0
0
0
0
0
0
0
0
0
0
0
0
0
0
0
0
0
0
0
0
0
0
0
0
0
0
0
0
0
0
0
0
0
0
0
0
0
0
0
0
0
0
0
0
0
0
0
0
0
0
0
0
0
0
0
0
0
0
0
0
0
0
0
0
0
0
0
0
0
0
0
0
0
0
0
0
0
0
0
0
0
0
0
0
0
0
0
0
0
0
0
0
0
0
0
0
0
0
0
0
0
0
0
0
0
